<svg width="50" height="50" fill="none" xmlns="http://www.w3.org/2000/svg"><circle cx="25" cy="25" r="25" fill="#F6F8FA"/><g clip-path="url(#clip0)"><path d="M28.695 37.234a.794.794 0 01-.735-.488l-2.985-7.074-3.547 3.137c-.15.153-.416.262-.693.262a1.057 1.057 0 01-1.054-1.058V12.76a1.058 1.058 0 011.74-.809l13.916 14.11c.217.268.301.503.301.747 0 .583-.473 1.059-1.054 1.059h-4.727l2.877 6.823a.797.797 0 01-.417 1.041l-3.303 1.436a.803.803 0 01-.319.066zm-3.415-9.692a.796.796 0 01.735.488l3.103 7.353 1.84-.8-3.038-7.203a.797.797 0 01.735-1.108h4.654l-12.033-12.2v16.743l3.475-3.073a.8.8 0 01.529-.2zm-4.887 4.054a.597.597 0 00-.061.054l.061-.054zm13.75-4.479h.01-.01z" fill="#E94200"/></g><defs><clipPath id="clip0"><path fill="#fff" transform="translate(14.894 11.702)" d="M0 0h25.532v25.532H0z"/></clipPath></defs></svg>