<svg width="50" height="50" fill="none" xmlns="http://www.w3.org/2000/svg"><circle cx="25" cy="25" r="25" fill="#F6F8FA"/><g clip-path="url(#clip0)"><path d="M36.111 31.757a.914.914 0 10-1.79.372.955.955 0 01-.193.801.929.929 0 01-.731.348H15.54a.93.93 0 01-.731-.348.955.955 0 01-.194-.8c.949-4.558 4.968-7.887 9.61-7.999a6.285 6.285 0 00.486 0 10.057 10.057 0 018.122 4.464.914.914 0 001.519-1.018 11.891 11.891 0 00-6.162-4.682 6.212 6.212 0 002.495-4.976 6.224 6.224 0 00-6.217-6.217 6.224 6.224 0 00-6.217 6.217c0 2.034.982 3.843 2.497 4.978a11.877 11.877 0 00-3.83 2.106 11.927 11.927 0 00-4.093 6.754 2.777 2.777 0 002.715 3.35h17.855a2.776 2.776 0 002.715-3.35zm-16.03-13.838a4.393 4.393 0 014.388-4.388 4.393 4.393 0 014.388 4.388 4.394 4.394 0 01-4.166 4.383 12.624 12.624 0 00-.444 0 4.394 4.394 0 01-4.167-4.383z" fill="#E94200"/></g><defs><clipPath id="clip0"><path fill="#fff" transform="translate(12.766 11.702)" d="M0 0h23.404v23.404H0z"/></clipPath></defs></svg>