<svg width="47" height="47" fill="none" xmlns="http://www.w3.org/2000/svg"><circle cx="23.5" cy="23.5" r="23.5" fill="#F6F8FA"/><path d="M35 27.919a8.1 8.1 0 00-5.918-7.787C28.865 15.06 24.671 11 19.546 11 14.282 11 10 15.282 10 20.546c0 1.715.457 3.386 1.324 4.852l-1.289 4.659 4.659-1.289a9.51 9.51 0 004.438 1.314A8.1 8.1 0 0026.919 36a8.055 8.055 0 004.112-1.123l3.934 1.088-1.088-3.934A8.052 8.052 0 0035 27.919zm-20.075-.735l-2.789.772.772-2.79-.176-.274a8.054 8.054 0 01-1.267-4.346c0-4.456 3.625-8.081 8.08-8.081 4.457 0 8.082 3.625 8.082 8.08 0 4.457-3.625 8.082-8.081 8.082A8.055 8.055 0 0115.2 27.36l-.275-.176zm17.939 6.68l-2.07-.573-.276.18a6.59 6.59 0 01-3.6 1.064 6.633 6.633 0 01-6.272-4.507 9.564 9.564 0 008.382-8.382 6.633 6.633 0 014.507 6.273 6.59 6.59 0 01-1.064 3.6l-.18.276.573 2.069z" fill="#E94200"/><path d="M18.813 24.232h1.465v1.465h-1.465v-1.465zm2.198-5.908c0 .416-.169.8-.476 1.081l-1.72 1.575v1.788h1.464v-1.143l1.244-1.139a2.938 2.938 0 00.953-2.162 2.933 2.933 0 00-2.93-2.93 2.933 2.933 0 00-2.93 2.93h1.466c0-.808.657-1.465 1.465-1.465.807 0 1.464.657 1.464 1.465z" fill="#E94200"/></svg>