<svg width="12" height="6" viewBox="0 0 12 6" fill="none" xmlns="http://www.w3.org/2000/svg">
<path d="M10.6877 5.39043C10.9033 5.56294 11.2179 5.52798 11.3904 5.31235C11.5629 5.09672 11.528 4.78207 11.3123 4.60957L10.6877 5.39043ZM0.687652 4.60956C0.472021 4.78207 0.43706 5.09672 0.609565 5.31235C0.78207 5.52798 1.09672 5.56294 1.31235 5.39043L0.687652 4.60956ZM6 1L6.31235 0.609565C6.12974 0.463478 5.87026 0.463478 5.68765 0.609565L6 1ZM11.3123 4.60957L6.31235 0.609565L5.68765 1.39043L10.6877 5.39043L11.3123 4.60957ZM5.68765 0.609565L0.687652 4.60956L1.31235 5.39043L6.31235 1.39043L5.68765 0.609565Z" fill="#BEBEBE"/>
</svg>
