<svg width="14" height="14" viewBox="0 0 14 14" fill="none" xmlns="http://www.w3.org/2000/svg">
<circle cx="7" cy="7" r="7" fill="#E94200"/>
<path d="M7.00009 5.63672C6.39826 5.63672 5.90918 6.1258 5.90918 6.72763C5.90918 7.32945 6.39826 7.81853 7.00009 7.81853C7.60191 7.81853 8.09099 7.32945 8.09099 6.72763C8.09099 6.1258 7.60189 5.63672 7.00009 5.63672Z" fill="white"/>
<path d="M7 4C5.18182 4 3.6291 5.1309 3 6.72727C3.6291 8.32363 5.18182 9.45454 7 9.45454C8.81999 9.45454 10.3709 8.32363 11 6.72727C10.3709 5.1309 8.81999 4 7 4ZM7 8.54544C5.99636 8.54544 5.18181 7.73089 5.18181 6.72725C5.18181 5.72362 5.99636 4.90908 7 4.90908C8.00363 4.90908 8.81818 5.72363 8.81818 6.72727C8.81818 7.7309 8.00363 8.54544 7 8.54544Z" fill="white"/>
</svg>
