<svg width="50" height="50" viewBox="0 0 50 50" fill="none" xmlns="http://www.w3.org/2000/svg">
<circle cx="25" cy="25" r="25" fill="#F6F8FA"/>
<g clip-path="url(#clip0)">
<path d="M36.1115 31.7568C36.0086 31.2625 35.5246 30.9452 35.0301 31.0481C34.5358 31.151 34.2185 31.6352 34.3214 32.1294C34.3807 32.4142 34.3101 32.706 34.1278 32.9303C34.0222 33.0601 33.7868 33.2779 33.3965 33.2779H15.5409C15.1507 33.2779 14.9152 33.0601 14.8096 32.9303C14.6273 32.7061 14.5567 32.4142 14.616 32.1294C15.5648 27.5722 19.5844 24.2433 24.2264 24.131C24.3068 24.1341 24.3875 24.1357 24.4687 24.1357C24.5502 24.1357 24.6313 24.1341 24.712 24.131C27.9818 24.2094 31.0041 25.8656 32.8343 28.5951C33.1155 29.0145 33.6834 29.1265 34.1028 28.8454C34.5222 28.5642 34.6342 27.9963 34.353 27.5769C32.8529 25.3396 30.6746 23.7127 28.1909 22.8953C29.7044 21.7603 30.6855 19.952 30.6855 17.9189C30.6855 14.491 27.8967 11.7021 24.4687 11.7021C21.0408 11.7021 18.252 14.491 18.252 17.9189C18.252 19.9532 19.2342 21.7625 20.7493 22.8974C19.3611 23.3544 18.0586 24.0655 16.9186 25.0033C14.8281 26.7228 13.3746 29.1212 12.8259 31.7568C12.654 32.5826 12.86 33.4309 13.391 34.0839C13.9195 34.7337 14.7031 35.1064 15.5409 35.1064H33.3964C34.2343 35.1064 35.0179 34.7337 35.5463 34.0839C36.0775 33.4309 36.2835 32.5826 36.1115 31.7568ZM20.0804 17.9189C20.0804 15.4992 22.049 13.5306 24.4687 13.5306C26.8884 13.5306 28.857 15.4992 28.857 17.9189C28.857 20.2641 27.0078 22.1856 24.6908 22.3016C24.6169 22.3003 24.5429 22.2996 24.4687 22.2996C24.3949 22.2996 24.3212 22.3003 24.2475 22.3017C21.9301 22.1861 20.0804 20.2644 20.0804 17.9189Z" fill="#E94200"/>
</g>
<defs>
<clipPath id="clip0">
<rect width="23.4043" height="23.4043" fill="white" transform="translate(12.7661 11.7021)"/>
</clipPath>
</defs>
</svg>
