<svg width="50" height="50" viewBox="0 0 50 50" fill="none" xmlns="http://www.w3.org/2000/svg">
<circle cx="25" cy="25" r="25" fill="#F6F8FA"/>
<g clip-path="url(#clip0)">
<path d="M28.6955 37.2341C28.5946 37.2341 28.4945 37.215 28.3988 37.1766C28.2009 37.0979 28.0435 36.9427 27.9605 36.7457L24.9753 29.6724L21.4276 32.8086C21.2786 32.9617 21.0115 33.0713 20.7349 33.0713C20.154 33.0713 19.6807 32.5968 19.6807 32.0128V12.7607C19.6807 12.1767 20.154 11.7021 20.7349 11.7021C20.9807 11.7021 21.2189 11.7882 21.4211 11.9521L35.337 26.0629C35.5542 26.3297 35.6381 26.5649 35.6381 26.8095C35.6381 27.3925 35.1648 27.868 34.5839 27.868H29.8572L32.7339 34.6905C32.904 35.0937 32.718 35.5575 32.3169 35.732L29.0136 37.168C28.9125 37.2117 28.804 37.2341 28.6955 37.2341ZM25.2796 27.5416C25.3392 27.5416 25.3976 27.548 25.4573 27.5618C25.7072 27.6191 25.9158 27.7926 26.0148 28.0299L29.1178 35.3829L30.9572 34.5829L27.92 27.3799C27.8158 27.134 27.8423 26.851 27.9901 26.6288C28.1382 26.4065 28.3881 26.2723 28.6552 26.2723H33.3094L21.2764 14.0712V30.8149L24.7509 27.7416C24.8976 27.6117 25.087 27.5416 25.2796 27.5416ZM20.3934 31.5958C20.371 31.6127 20.3509 31.6308 20.3317 31.6499L20.3934 31.5958ZM34.1423 27.1171H34.153H34.1423Z" fill="#E94200"/>
</g>
<defs>
<clipPath id="clip0">
<rect width="25.5319" height="25.5319" fill="white" transform="translate(14.8936 11.7021)"/>
</clipPath>
</defs>
</svg>
