<svg width="47" height="47" viewBox="0 0 47 47" fill="none" xmlns="http://www.w3.org/2000/svg">
<circle cx="23.5" cy="23.5" r="23.5" fill="#F6F8FA"/>
<path d="M35 27.9189C35 24.275 32.5447 21.0912 29.0823 20.1318C28.8646 15.0596 24.6708 11 19.5459 11C14.2822 11 10 15.2822 10 20.5459C10 22.2614 10.4566 23.9316 11.3237 25.398L10.0351 30.0565L14.6938 28.7681C16.0417 29.5652 17.5623 30.0142 19.1316 30.0819C20.0908 33.5445 23.2748 36 26.9189 36C28.3735 36 29.788 35.6126 31.0308 34.8766L34.9647 35.9647L33.8766 32.0308C34.6126 30.788 35 29.3735 35 27.9189ZM14.925 27.1842L12.136 27.9558L12.9076 25.1668L12.7317 24.8918C11.903 23.5952 11.4648 22.0924 11.4648 20.5459C11.4648 16.09 15.09 12.4648 19.5459 12.4648C24.0018 12.4648 27.627 16.09 27.627 20.5459C27.627 25.0018 24.0018 28.627 19.5459 28.627C17.9994 28.627 16.4968 28.1888 15.2 27.3601L14.925 27.1842ZM32.864 33.864L30.7945 33.2914L30.5181 33.4712C29.4468 34.1672 28.202 34.5352 26.9189 34.5352C24.0549 34.5352 21.5381 32.6833 20.6464 30.0279C25.0322 29.5223 28.5223 26.0322 29.0281 21.6462C31.6833 22.5381 33.5352 25.0549 33.5352 27.9189C33.5352 29.202 33.1672 30.4468 32.4712 31.5181L32.2914 31.7945L32.864 33.864Z" fill="#E94200"/>
<path d="M18.8128 24.2324H20.2777V25.6973H18.8128V24.2324Z" fill="#E94200"/>
<path d="M21.0114 18.3242C21.0114 18.7402 20.842 19.1242 20.5345 19.4055L18.8141 20.9802V22.7676H20.279V21.6253L21.5235 20.4862C22.1289 19.9321 22.4762 19.1442 22.4762 18.3242C22.4762 16.7087 21.1621 15.3945 19.5465 15.3945C17.931 15.3945 16.6169 16.7087 16.6169 18.3242H18.0817C18.0817 17.5165 18.7388 16.8594 19.5465 16.8594C20.3543 16.8594 21.0114 17.5165 21.0114 18.3242Z" fill="#E94200"/>
</svg>
